# xmcd
#
# Track frame offsets:
#       150
#       14282
#       24362
#       35117
#       46845
#       58087
#       69120
#       83147
#       96725
#       108482
#       118140
#       133137
#       146857
#       161022
#       176965
#       190217
#       199637
#       208427
#       217392
#       227950
#
# Disc length: 3165 seconds
#
# Revision: 1
# Processed by: cddbd v1.5.2PL0 Copyright (c) Steve Scherf et al.
# Submitted via: FreeDbEdit v0.1
#
DISCID=3e0c5b14
DTITLE=Roger Miller - The Legendary Roger Miller [CD3]
DYEAR=1900
DGENRE=Country
TTITLE0=Old Friends
TTITLE1=Tall, Tall Trees
TTITLE2=Don't We All Have the Right
TTITLE3=Open Up Your Heart
TTITLE4=When a House Is Not a Home
TTITLE5=Sorry, Willie
TTITLE6=T.J.'s Last Ride
TTITLE7=Rings for Sale
TTITLE8=Hoppy's Gone
TTITLE9=Big Harlan Taylor
TTITLE10=Me and Bobby McGee
TTITLE11=Loving Her Was Easier (Than Anything I'll Ever Do Again)
TTITLE12=Jody and the Kid
TTITLE13=Darby's Castle
TTITLE14=The Best of All Possible Worlds
TTITLE15=Old Toy Trains
TTITLE16=Atta Boy Girl
TTITLE17=The Moon Is High (And So Am I)
TTITLE18=The Ballad of Waterhole #3 (Code of the West)
TTITLE19=Whistle Stop (From the Walt Disney Movie Robin Hood)
EXTD=
EXTT0=
EXTT1=
EXTT2=
EXTT3=
EXTT4=
EXTT5=
EXTT6=
EXTT7=
EXTT8=
EXTT9=
EXTT10=
EXTT11=
EXTT12=
EXTT13=
EXTT14=
EXTT15=
EXTT16=
EXTT17=
EXTT18=
EXTT19=
PLAYORDER=
